<svg xmlns="http://www.w3.org/2000/svg" viewBox="0 0 122.59 97.39"><defs><style>.cls-1{fill:#231f20;}</style></defs><title>flor sola</title><g id="Capa_2" data-name="Capa 2"><g id="Capa_1-2" data-name="Capa 1"><path class="cls-1" d="M61.29,27.62c16.89,7.79,20.76-5.94,25.2-10-9.25-6.16-18.74,7.07-22.95,3.52C61.41,19.56,71.62,7.92,61.29,0,51,7.92,61.22,19.56,59.09,21.17c-4.25,3.55-13.71-9.68-23-3.52,4.44,4,8.33,17.76,25.19,10"/><path class="cls-1" d="M80.94,37.63c-4.12-1.7-9.11-2.16-13.09.1-1.3.74-2.37,1.87-3.76,2.47a6.47,6.47,0,0,1-4,.48,10.86,10.86,0,0,1-1.22-.34,2.24,2.24,0,0,0-.39-.14,42.25,42.25,0,0,1-3.78-2.47c-4-2.26-9-1.8-13-.1-4.37,1.82-7,5.52-6.72,10.35,0,.73,3.45-1.08,3.8-1.25,2.92-1.43,6-2.51,9.28-1.74,4.33,1,7.49,4.85,12,5.34a11,11,0,0,0,2.56,0c4.53-.49,7.67-4.33,12-5.34,3.27-.77,6.38.31,9.29,1.74.36.17,3.75,2,3.78,1.25.32-4.83-2.32-8.53-6.69-10.35"/><path class="cls-1" d="M122.44,62.71A8,8,0,0,0,121.09,60a5.9,5.9,0,0,0-4.59-2.46c-5-.15-9.93,2.82-13.36,6.3-.89.83-1.44,2.26-2.88,1.81-.38-.11-.54-.6-.54-.94,0-2,1.53-3.76,2.71-5.27,2.9-3.65,5.14-8.51,1.71-12.57a1.24,1.24,0,0,0-1.83-.18,61.85,61.85,0,0,1-5.19,4.58c-3.59,3.31-8,7.83-5.62,13,1.61,3.5,5.09,6.72,4.69,10.9a5.44,5.44,0,0,1-3.56,4.49,3.73,3.73,0,0,1-3.9-.38,4.62,4.62,0,0,1-1-3.48A93.17,93.17,0,0,0,87.29,66a13.76,13.76,0,0,0-1.7-6.13,13.65,13.65,0,0,0-9.06-6c-1.67-.33-2.92,0-3.08,1.94a10.38,10.38,0,0,0,1.26,5.88c1,1.8,2.44,3.36,3.31,5.28a19.5,19.5,0,0,1,1.33,8.2c0,4.9-.48,9.6-3.56,13.61a5.64,5.64,0,0,1-2.87,2,4.72,4.72,0,0,1-3.42-.83c-1.4-1.15-1.12-3.54-.76-5.09.5-2.28,1.77-4,2.86-5.94A3.56,3.56,0,0,0,71,74.08c-.4-.38-.7-1-1.22-.51s-.52,1.45-.85,2a5.29,5.29,0,0,1-4.39,2.48c.15,0,.46-.76.52-.86a12.42,12.42,0,0,0,.89-2.34,10.79,10.79,0,0,0,.41-3.44,10.09,10.09,0,0,0-1.11-4.25A15.88,15.88,0,0,0,61.81,63a2.84,2.84,0,0,0-.49-.49c-.1,0-.45.4-.53.48s-.34.29-.49.45c-.35.32-.67.64-1,1a12,12,0,0,0-1.59,2.08,10.91,10.91,0,0,0-1.42,4.39,10.23,10.23,0,0,0,.25,3.53A12,12,0,0,0,57.49,77a4,4,0,0,0,.58,1s0,0,0,.07a5.32,5.32,0,0,1-4.4-2.48c-.33-.57-.37-1.6-.85-2s-.83.13-1.21.51C50.14,75.49,50,77,51,78.9s2.37,3.66,2.86,5.94c.35,1.55.64,3.94-.76,5.09a4.82,4.82,0,0,1-3.43.83,5.66,5.66,0,0,1-2.86-2c-3.09-4-3.58-8.71-3.56-13.61,0-2.8.14-5.64,1.32-8.2.86-1.92,2.33-3.48,3.32-5.28a10.47,10.47,0,0,0,1.27-5.88c-.17-1.92-1.42-2.27-3.09-1.94a13.69,13.69,0,0,0-9.07,6A13.61,13.61,0,0,0,35.31,66a95.92,95.92,0,0,0-.44,9.88,4.58,4.58,0,0,1-1,3.48,3.72,3.72,0,0,1-3.9.38,5.53,5.53,0,0,1-3.57-4.49c-.39-4.18,3.09-7.4,4.72-10.9,2.33-5.2-2.05-9.72-5.64-13a65.25,65.25,0,0,1-5.19-4.58,1.22,1.22,0,0,0-1.82.18C15,51,17.26,55.82,20.15,59.47c1.17,1.51,2.68,3.26,2.71,5.27a1,1,0,0,1-.53.94c-1.45.45-2-1-2.88-1.81-3.42-3.5-8.33-6.45-13.36-6.3A5.86,5.86,0,0,0,1.49,60,7.76,7.76,0,0,0,.15,62.71a3.74,3.74,0,0,0-.08,1.73c.19.82.89.83,1.58,1,.49.12,1,.27,1.48.43A30.21,30.21,0,0,1,6,67a24.18,24.18,0,0,1,6.32,4,14,14,0,0,1,1.46,1.52c2.13,2.56,3.67,5.54,5.55,8.25a50.71,50.71,0,0,0,7.35,8.6,29.87,29.87,0,0,0,16,7.79,21.61,21.61,0,0,0,5.45,0c4.54-.53,8.87-2.32,13.17-3.82,4.28,1.5,8.62,3.29,13.15,3.82a21.53,21.53,0,0,0,5.44,0,30,30,0,0,0,16-7.79,50.94,50.94,0,0,0,7.31-8.6c1.9-2.71,3.43-5.69,5.58-8.23a11.22,11.22,0,0,1,1.46-1.54,23.06,23.06,0,0,1,6.31-4,27.89,27.89,0,0,1,2.9-1.17c.49-.16,1-.31,1.48-.43.7-.18,1.39-.19,1.58-1a3.89,3.89,0,0,0-.08-1.73"/></g></g></svg>