<svg xmlns="http://www.w3.org/2000/svg" viewBox="0 0 67.39 22.19"><defs><style>.cls-1{fill:#606060;}</style></defs><title>Asset 3</title><g id="Layer_2" data-name="Layer 2"><g id="Layer_1-2" data-name="Layer 1"><path class="cls-1" d="M14.61,2.36,13,4c-.21-.17-.42-.35-.65-.51A5.94,5.94,0,0,0,8.2,2.38,6,6,0,0,0,3.63,5.06a6.18,6.18,0,0,0-1,4.44A6.16,6.16,0,0,0,9,14.86a6,6,0,0,0,2.81-.77,4.77,4.77,0,0,0,2.46-3.59c0-.08,0-.16,0-.26H8.74V7.89h7.91a8,8,0,0,1,.12,1.62A8.21,8.21,0,0,1,16,12.86a7,7,0,0,1-4.81,4,8.64,8.64,0,0,1-8.89-2.46A8,8,0,0,1,0,8.16,8.37,8.37,0,0,1,4.1,1.34,8.54,8.54,0,0,1,9.65.05,8.09,8.09,0,0,1,14.61,2.36Z"/><path class="cls-1" d="M42.14,18.92,44.25,18c.13.22.24.43.37.63a3.06,3.06,0,0,0,4.26.81,2.52,2.52,0,0,0,.83-1.06A5.78,5.78,0,0,0,50,15.93a.76.76,0,0,0-.15.1,3.66,3.66,0,0,1-2.41,1.16A5.38,5.38,0,0,1,42,13.6a5.62,5.62,0,0,1,2.89-7,4.53,4.53,0,0,1,3.76-.13,3.25,3.25,0,0,1,1.18.83l.14.1V6.48h2.32v9.86a7.58,7.58,0,0,1-.47,2.83,4.57,4.57,0,0,1-3.57,2.9,5.6,5.6,0,0,1-3.56-.41A5.45,5.45,0,0,1,42.14,18.92Zm8-7.23a3.77,3.77,0,0,0-.29-1.49A2.86,2.86,0,0,0,45.35,9a3.59,3.59,0,0,0-.28,5.09A2.87,2.87,0,0,0,49.44,14,3.51,3.51,0,0,0,50.19,11.69Z"/><path class="cls-1" d="M17.71,11.68a5.56,5.56,0,0,1,11.12,0,5.56,5.56,0,0,1-11.12,0Zm8.69,0a3.75,3.75,0,0,0-.23-1.32,3.07,3.07,0,0,0-5.18-1,3.64,3.64,0,0,0-.06,4.59,3,3,0,0,0,4.2.46A3.33,3.33,0,0,0,26.4,11.68Z"/><path class="cls-1" d="M29.71,11.66a5.56,5.56,0,0,1,11.12,0,5.56,5.56,0,0,1-11.12,0Zm8.69.11a4.16,4.16,0,0,0-.24-1.43,3.07,3.07,0,0,0-5.17-1,3.61,3.61,0,0,0,0,4.71,3,3,0,0,0,3.86.5A3.26,3.26,0,0,0,38.4,11.77Z"/><path class="cls-1" d="M60,13.35A2.82,2.82,0,0,0,62.63,15,3.19,3.19,0,0,0,65.4,13.5l1.9,1.27c-.22.26-.42.53-.65.76a5.52,5.52,0,0,1-9.46-3.33,5.8,5.8,0,0,1,1-3.9,4.92,4.92,0,0,1,3.75-2.14,4.77,4.77,0,0,1,4.69,2.45,9.5,9.5,0,0,1,.77,1.68Zm4.54-3.9a.36.36,0,0,0,0-.11,2,2,0,0,0-.11-.2,2.14,2.14,0,0,0-1.6-.85,2.85,2.85,0,0,0-2.66,1.3,3,3,0,0,0-.53,1.91Z"/><path class="cls-1" d="M56.13,16.87H53.78V.64h2.35Z"/></g></g></svg>