<svg xmlns="http://www.w3.org/2000/svg" viewBox="0 0 164.85 54.6"><title>header-footer</title><g id="Capa_2" data-name="Capa 2"><g id="Capa_1-2" data-name="Capa 1"><path d="M162.11,53.38v-2.2h.7a1.45,1.45,0,0,1,.4,0,.43.43,0,0,1,.22.17.45.45,0,0,1,.07.27.46.46,0,0,1-.21.42,1.06,1.06,0,0,1-.45.19l.29.36.27.34.32.4h-.37c0-.08-.12-.16-.19-.26l-.2-.28-.24-.29c-.08-.1-.15-.19-.21-.25h-.12v1.08h-.28m.28-1.2h.16a1,1,0,0,0,.33,0,.53.53,0,0,0,.21-.12.33.33,0,0,0,.1-.15.5.5,0,0,0,0-.16.34.34,0,0,0-.17-.32.72.72,0,0,0-.4-.1h-.26Z"/><path d="M162.91,54.22a1.94,1.94,0,1,1,1.94-1.94,1.94,1.94,0,0,1-1.94,1.94m0-3.7a1.76,1.76,0,1,0,1.76,1.76,1.76,1.76,0,0,0-1.76-1.76"/><path d="M79.25,7.38C83.76,9.46,84.8,5.79,86,4.71c-2.47-1.64-5,1.89-6.12.94C79.29,5.22,82,2.12,79.25,0c-2.75,2.12,0,5.22-.58,5.65-1.14.95-3.66-2.58-6.14-.94,1.18,1.08,2.22,4.75,6.72,2.67"/><path d="M84.5,10.05a4.05,4.05,0,0,0-3.5,0,9.6,9.6,0,0,1-1,.66,1.68,1.68,0,0,1-1.06.13,3,3,0,0,1-.32-.09l-.11,0a10.93,10.93,0,0,1-1-.66,4,4,0,0,0-3.48,0,2.71,2.71,0,0,0-1.8,2.76c0,.2.93-.29,1-.33A3.67,3.67,0,0,1,75.72,12c1.15.27,2,1.3,3.19,1.43a4,4,0,0,0,.69,0c1.21-.13,2-1.16,3.2-1.43a3.67,3.67,0,0,1,2.48.47c.09,0,1,.53,1,.33a2.7,2.7,0,0,0-1.79-2.76"/><path d="M95.58,16.75a1.88,1.88,0,0,0-.36-.72A1.57,1.57,0,0,0,94,15.37a5.13,5.13,0,0,0-3.57,1.68c-.24.23-.38.61-.77.49a.24.24,0,0,1-.14-.25,2.52,2.52,0,0,1,.72-1.41c.77-1,1.37-2.27.46-3.36a.34.34,0,0,0-.49,0,16.6,16.6,0,0,1-1.39,1.23c-1,.88-2.13,2.09-1.5,3.48.43.93,1.36,1.79,1.25,2.91a1.46,1.46,0,0,1-.95,1.2,1,1,0,0,1-1-.1,1.25,1.25,0,0,1-.27-.93,25.78,25.78,0,0,0-.11-2.64A3.74,3.74,0,0,0,85.74,16a3.65,3.65,0,0,0-2.42-1.61c-.44-.08-.78,0-.82.52a2.77,2.77,0,0,0,.34,1.57c.26.48.65.9.88,1.41a5.26,5.26,0,0,1,.36,2.19,5.64,5.64,0,0,1-1,3.64,1.62,1.62,0,0,1-.77.54,1.29,1.29,0,0,1-.91-.23c-.38-.3-.3-.94-.21-1.35A5.72,5.72,0,0,1,82,21.07a1,1,0,0,0-.17-1.29c-.11-.1-.19-.25-.33-.14s-.14.39-.23.54a1.4,1.4,0,0,1-1.17.66s.12-.2.14-.23a3.07,3.07,0,0,0,.24-.62,3.18,3.18,0,0,0,.11-.92,2.71,2.71,0,0,0-.3-1.13,4.11,4.11,0,0,0-.91-1.12s-.1-.12-.13-.13-.12.11-.14.13l-.13.12-.26.26a3.46,3.46,0,0,0-.43.56,3.1,3.1,0,0,0-.38,1.17,2.72,2.72,0,0,0,.07.94,3.06,3.06,0,0,0,.25.68.94.94,0,0,0,.15.28h0a1.4,1.4,0,0,1-1.17-.66c-.09-.15-.1-.43-.23-.54s-.22,0-.32.14a1,1,0,0,0-.18,1.29,5.46,5.46,0,0,1,.77,1.59c.09.41.17,1.05-.21,1.35a1.29,1.29,0,0,1-.91.23,1.55,1.55,0,0,1-.76-.54,5.65,5.65,0,0,1-1-3.64,5.26,5.26,0,0,1,.36-2.19c.23-.51.62-.93.88-1.41A2.77,2.77,0,0,0,76,14.89c0-.51-.37-.6-.82-.52A3.68,3.68,0,0,0,72.77,16a3.6,3.6,0,0,0-.45,1.64,25.78,25.78,0,0,0-.12,2.64,1.25,1.25,0,0,1-.27.93,1,1,0,0,1-1,.1,1.49,1.49,0,0,1-1-1.2c-.1-1.12.83-2,1.26-2.91.63-1.39-.54-2.6-1.5-3.48a18.39,18.39,0,0,1-1.39-1.23.34.34,0,0,0-.49,0c-.91,1.09-.31,2.38.46,3.36A2.59,2.59,0,0,1,69,17.29a.25.25,0,0,1-.14.25c-.39.12-.53-.26-.77-.49a5.07,5.07,0,0,0-3.57-1.68,1.55,1.55,0,0,0-1.22.66,1.88,1.88,0,0,0-.36.72.89.89,0,0,0,0,.46c.05.22.23.22.42.27l.39.11c.27.09.53.2.78.31A6.62,6.62,0,0,1,66.19,19a3,3,0,0,1,.39.41c.56.68,1,1.48,1.48,2.2a13.86,13.86,0,0,0,2,2.3A8,8,0,0,0,74.29,26a5.86,5.86,0,0,0,1.45,0,16.85,16.85,0,0,0,3.52-1,16.59,16.59,0,0,0,3.51,1,5.86,5.86,0,0,0,1.45,0,8,8,0,0,0,4.27-2.08,13.86,13.86,0,0,0,2-2.3,26.56,26.56,0,0,1,1.49-2.2,3,3,0,0,1,.39-.41A6.4,6.4,0,0,1,94,17.9c.26-.11.51-.22.78-.31l.39-.11c.19-.05.37-.05.42-.27a.89.89,0,0,0,0-.46"/><path d="M156.57,51.28,151.42,39l-1.07-2.6h-.81l-1.32,0c-.48,0-.89,0-1.21-.07l-.52,0,.23.76.11.08a3.88,3.88,0,0,1,1.07,1,1.67,1.67,0,0,1,.39,1,.71.71,0,0,1,0,.21L143.1,51.18a3.29,3.29,0,0,1-2.13,2l-.1,0-.77.9L141,54a13,13,0,0,1,3.53,0L145,54v-.69l-.12-.1a.76.76,0,0,1-.27-.53,2.46,2.46,0,0,1,.23-.83l1.82-4.52a31.09,31.09,0,0,1,5.29,0,49.8,49.8,0,0,1,1.71,4.84,1.4,1.4,0,0,1-.29.53,1.31,1.31,0,0,0-.37.77V54l.4-.06a16.16,16.16,0,0,1,4.76,0l.4.07v-.8l-.22-.09a3,3,0,0,1-1.72-1.84m-5.35-5.57c-1.22,0-2.6,0-3.82,0l2-4.66Z"/><path d="M81.45,49.77c-.37,0-.63.35-.78.55l0,.07a4.47,4.47,0,0,1-2.73,1.84,10.86,10.86,0,0,1-1.43.09h-.17c-1.12,0-3-.22-3.06-1.47-.08-1.57-.16-3.37-.17-5.23h.18c.46,0,.91,0,1.36,0,.24,0,.5,0,.76,0a4,4,0,0,1,2.73.6.61.61,0,0,1,.16.21.54.54,0,0,0,.45.35h.53l0-.38a17.82,17.82,0,0,1,.08-2.82l.06-.78h-.72l-.1.15a2.15,2.15,0,0,1-.9.78,4.94,4.94,0,0,1-1.86.29c-.37,0-.74,0-1.1,0l-.48,0-1.13,0c0-1,0-3.89.06-4.21,0-.15,0-.3,0-.46A5.91,5.91,0,0,1,73.24,38c.15,0,.51,0,.73,0h.29l.54,0c.32,0,.64-.05,1-.05,1.4,0,2.76.14,3.29,1.14.06.12.25.48.59.48a.49.49,0,0,0,.48-.54,6.39,6.39,0,0,0-.09-1,7,7,0,0,1-.08-.9c0-.26-.15-.59-.89-.69a19,19,0,0,0-3.38,0l-.44,0c-.49,0-1,.06-1.48.07a39.21,39.21,0,0,1-4.61-.14l-.64-.09.17.88.16.08a3.1,3.1,0,0,1,.91.65A4.31,4.31,0,0,1,70.43,41c0,.33,0,.64,0,.94.06,2.13.07,4.41,0,7.4,0,.17,0,.34,0,.51a4.69,4.69,0,0,1-.16,1.65,3.15,3.15,0,0,1-.81,1.16,2,2,0,0,1-.45.33l-.2.09V54l.92-.09,1.06-.07c.59,0,1.21,0,2,0h1.61l1.62,0h3.23a1.59,1.59,0,0,0,1.37-.52,3.46,3.46,0,0,0,.48-.88,4.11,4.11,0,0,1,.31-.63A2.68,2.68,0,0,0,82,50.3a.52.52,0,0,0-.55-.53"/><path d="M54.21,35.34a.59.59,0,0,0,.5.22.61.61,0,0,0,.24,0,1.13,1.13,0,0,0,.46-.46,3.76,3.76,0,0,1,2.17-1.14,4.34,4.34,0,0,1,.79-.13.89.89,0,0,0,.65-.17.41.41,0,0,0,.1-.32c0-.47-.62-.56-.9-.6h-.07a4.15,4.15,0,0,1-.66-.2,4.79,4.79,0,0,0-.64-.21,1,1,0,0,0-1,.44c-.13.15-.24.3-.36.46s-.21.28-.33.42-.37.46-.54.7l-.3.39a.62.62,0,0,0-.17.54.54.54,0,0,0,.05.11"/><path d="M96.18,52.82a3.1,3.1,0,0,1-.26-1.23c0-.7,0-1.55,0-2.53V47.12c0-.71,0-1.33,0-1.86s0-1,0-1.58c0,0,0-.37,0-.89s0-1.16,0-1.74c0-.2,0-.42,0-.65v0a11.79,11.79,0,0,1,.24-2l.08-.29a1.47,1.47,0,0,1,.72-.63l.19-.1v-.74l-.38,0c-.43,0-.89,0-1.45,0l-1.2,0H92.56v.7l.18.1a2.26,2.26,0,0,1,1,.78A3.7,3.7,0,0,1,94,39.85v.29c0,1,0,2.08,0,3.15,0,.09,0,.18,0,.26s0,.41,0,.9V45.7c0,.57,0,1.14,0,1.74v.71c0,1.83-.4,3.1-1.19,3.77a3.8,3.8,0,0,1-1.24.64,7.3,7.3,0,0,1-2,.28,4.52,4.52,0,0,1-2.8-.81,3.34,3.34,0,0,1-1-1.37,8.73,8.73,0,0,1-.35-3.25V45.87c0-1.19,0-2.42,0-3.63V42a11.86,11.86,0,0,1,.17-3.21,2.37,2.37,0,0,1,.42-.93l.18-.12c.32-.2.51-.33.51-.58v-.52l-.38,0-.79,0a20.89,20.89,0,0,1-3.69,0l-.39,0v.72l.16.11a2,2,0,0,1,.82.85,7.86,7.86,0,0,1,.35,3.16l0,2.67c0,1.37,0,2.74,0,4.13a7.4,7.4,0,0,0,.65,3.64,4.33,4.33,0,0,0,1.6,1.68,5.94,5.94,0,0,0,2,.71,14.43,14.43,0,0,0,2.26.17,15.82,15.82,0,0,0,2.73-.2,4.72,4.72,0,0,0,2-.86v1l.38,0c.42,0,.77-.05,1-.05s.49,0,.9.07l.72,0h.35v-.71l-.19-.1a2.21,2.21,0,0,1-.94-.77"/><path d="M16.46,49.65c-.19,0-.3.12-.56.43a5.65,5.65,0,0,1-2,1.52,8.28,8.28,0,0,1-6.63.12A7.83,7.83,0,0,1,3.5,47.55a7.71,7.71,0,0,1,0-5.61A6.48,6.48,0,0,1,4.62,40a7.34,7.34,0,0,1,4.64-2.2,7.93,7.93,0,0,1,1-.06A5.8,5.8,0,0,1,15,39.83c.24.35.4.52.63.52s.5-.05.5-.7A20.58,20.58,0,0,0,16,37.16c-.07-.51-.36-.56-.49-.56a.69.69,0,0,0-.32.08.57.57,0,0,1-.21,0,8.52,8.52,0,0,1-1.64-.23l-.76-.14a18,18,0,0,0-2.89-.28,10.76,10.76,0,0,0-3.93.73,9.11,9.11,0,0,0-5,4.91,8.81,8.81,0,0,0,2,9.79A9.53,9.53,0,0,0,8.3,54.1a12.94,12.94,0,0,0,1.39.07A12.91,12.91,0,0,0,15.14,53a3.79,3.79,0,0,0,1.8-2.88.46.46,0,0,0-.48-.47"/><path d="M33.22,51.28,28.07,39,27,36.41h-.81l-1.32,0c-.48,0-.88,0-1.21-.07l-.51,0,.22.76.11.08a3.78,3.78,0,0,1,1.08,1,1.71,1.71,0,0,1,.38,1,.71.71,0,0,1,0,.21L19.75,51.18a3.29,3.29,0,0,1-2.13,2l-.1,0-.78.9.92-.12a13,13,0,0,1,3.53,0l.41.06v-.69l-.11-.1a.74.74,0,0,1-.28-.53,2.46,2.46,0,0,1,.23-.83l1.82-4.52a31.09,31.09,0,0,1,5.29,0,49.8,49.8,0,0,1,1.71,4.84,1.27,1.27,0,0,1-.29.53,1.34,1.34,0,0,0-.38.77V54L30,54a16.09,16.09,0,0,1,4.75,0l.41.07v-.8l-.22-.09a3,3,0,0,1-1.72-1.84m-5.34-5.57c-1.23,0-2.61,0-3.83,0l2-4.66Z"/><path d="M47.26,37c0-.26-.16-.59-.89-.69a8.83,8.83,0,0,0-1.32-.09h-.19c-.82,0-1.66,0-2.46.09-.64,0-1.28.08-1.92.09a32.92,32.92,0,0,1-4-.15l-.63-.09.17.88.16.07a2.78,2.78,0,0,1,1.08.86,3.75,3.75,0,0,1,.43,2.1c0,.17,0,.33,0,.5,0,.76.06,1.53.07,2.3,0,2.16.08,5,0,7.82v.16a2.81,2.81,0,0,1-.35,1.63,2,2,0,0,1-.74.63l-.2.1V54l.38,0c.76-.07,1.49-.1,2.17-.1s1.49,0,2.39.1l.37,0V53.2l-.21-.09a1.61,1.61,0,0,1-.77-.62,2.26,2.26,0,0,1-.3-1c0-1-.1-2-.12-3.18s0-2.05-.05-3l1.54,0h.62a7.1,7.1,0,0,1,2.35.3,1.29,1.29,0,0,1,.7.62l.09.17.88.07,0-.41c0-.22,0-.42-.05-.61a6.6,6.6,0,0,1,0-1.7c0-.22.05-.41.07-.58l0-.38h-.78l-.1.15a1.61,1.61,0,0,1-1.27.73,20.06,20.06,0,0,1-2.82,0l-1.16,0c0-.59,0-1.77,0-1.89,0-1,0-2,.07-3.05,0-.38,0-.6.06-.73l.84-.06c.55,0,1.11-.07,1.66-.08h.4a3.73,3.73,0,0,1,2.59.71,2,2,0,0,1,.3.36l0,.07c.09.16.26.49.62.49a.49.49,0,0,0,.48-.54,6.39,6.39,0,0,0-.09-1,7.15,7.15,0,0,1-.08-.9"/><path d="M61,49.77c-.38,0-.63.35-.79.55l0,.07a4.49,4.49,0,0,1-2.72,1.84,11,11,0,0,1-1.44.09h-.16c-1.12,0-3-.22-3.07-1.47-.07-1.57-.16-3.37-.17-5.23h.2c.45,0,.9,0,1.35,0,.24,0,.49,0,.76,0a4,4,0,0,1,2.72.6.92.92,0,0,1,.17.21.52.52,0,0,0,.45.35h.53l0-.38a19.18,19.18,0,0,1,.07-2.83l.06-.77h-.71l-.11.15a2.07,2.07,0,0,1-.89.78,4.94,4.94,0,0,1-1.86.29c-.37,0-.74,0-1.1,0l-.48,0-1.13,0c0-1,0-3.88.06-4.21,0-.15,0-.3,0-.45A5.93,5.93,0,0,1,52.81,38c.14,0,.49,0,.72,0h.29l.53,0c.32,0,.65-.05,1-.05h0c1.39,0,2.76.14,3.29,1.14.06.12.24.48.59.48A.49.49,0,0,0,59.7,39a7.92,7.92,0,0,0-.09-1,7,7,0,0,1-.09-.9c0-.26-.15-.59-.88-.69a19,19,0,0,0-3.38,0l-.45,0c-.49,0-1,.06-1.47.07a39.21,39.21,0,0,1-4.61-.14l-.64-.09.17.88.16.08a3.1,3.1,0,0,1,.91.65A4.31,4.31,0,0,1,50,41c0,.33,0,.64,0,.94.06,2.15.08,4.43,0,7.4v.51a4.61,4.61,0,0,1-.16,1.64,2.89,2.89,0,0,1-.81,1.17,1.74,1.74,0,0,1-.44.33l-.2.09V54l.91-.09,1.07-.07c.58,0,1.2,0,2,0H54l1.62,0h3.22a1.6,1.6,0,0,0,1.38-.52,3.6,3.6,0,0,0,.48-.88,4.11,4.11,0,0,1,.31-.63,2.78,2.78,0,0,0,.57-1.48.51.51,0,0,0-.54-.53"/><path d="M115.62,53a4.85,4.85,0,0,1-3.17-.89,17.43,17.43,0,0,1-3.73-4.64l-.44-.69-.6-.93a5,5,0,0,0,.65-.33A4.83,4.83,0,0,0,110,43.71,5,5,0,0,0,110,39a4.15,4.15,0,0,0-1.68-1.79,6.21,6.21,0,0,0-1.68-.61,9.11,9.11,0,0,0-1.76-.21c-.42,0-1.05,0-1.88.09s-1.62.1-2.09.1l-1.11,0c-.41,0-.81,0-1.22-.09l-.39,0v.79l.2.1a2,2,0,0,1,.85.73,2.74,2.74,0,0,1,.28,1.11c0,1,.1,2.06.12,3.14s0,2.14,0,3.18c0,2.78,0,4.79,0,6.14a1.11,1.11,0,0,1-.36.8,3.37,3.37,0,0,1-1,.69l-.2.1V54l.38,0c.32,0,.72,0,1.18-.07l1.26,0c.67,0,1.48,0,2.39.1l.38,0v-.78l-.21-.09a1.68,1.68,0,0,1-.79-.57,2.12,2.12,0,0,1-.28-1.06c-.11-1.52-.16-3.23-.17-5.08l.48-.05c.37,0,.63,0,.76,0h1a11,11,0,0,1,.94,1.13c.32.43.75,1,1.27,1.8.25.39.52.76.8,1.14l.11.17c.23.3.45.61.69.91a8.38,8.38,0,0,0,3.22,2.68,5.79,5.79,0,0,0,2.28.44,3.55,3.55,0,0,0,2.09-.56.78.78,0,0,0,.24-.57.47.47,0,0,0-.5-.47m-7.9-11.82a3.74,3.74,0,0,1-.82,2.71,4.23,4.23,0,0,1-3,.82h-.86l-.8,0c0-1.77,0-2.92,0-3.49s0-.88,0-1.16l0-.85c0-.07,0-.2,0-.42a3.08,3.08,0,0,1,.08-.72h.18A9.9,9.9,0,0,1,103.7,38a11.35,11.35,0,0,1,1.51.1,2.67,2.67,0,0,1,1.07.38,3,3,0,0,1,1,1.17,3.27,3.27,0,0,1,.39,1.52"/><path d="M130.05,38.86a8.33,8.33,0,0,0-3-1.92,11,11,0,0,0-3.9-.67,9.49,9.49,0,0,0-3.6.69,9,9,0,0,0-3,1.93,9.13,9.13,0,0,0-2,2.88,8.54,8.54,0,0,0,0,6.91,8.93,8.93,0,0,0,2,2.86,9.27,9.27,0,0,0,3,1.93,9.68,9.68,0,0,0,3.59.69,10.09,10.09,0,0,0,3.6-.66,9.2,9.2,0,0,0,3-1.86,8.82,8.82,0,0,0,2-2.87,9,9,0,0,0,.72-3.59,9.71,9.71,0,0,0-.62-3.47,8.39,8.39,0,0,0-1.83-2.85m-.3,7.07a7.2,7.2,0,0,1-.49,2.69,5.84,5.84,0,0,1-1.38,2.05A6.07,6.07,0,0,1,125.8,52a6.43,6.43,0,0,1-5.12-.16,6.25,6.25,0,0,1-2-1.71,8.55,8.55,0,0,1-1.35-2.51,8.87,8.87,0,0,1-.48-2.9,7.8,7.8,0,0,1,.47-2.74,6,6,0,0,1,1.32-2.12,5.93,5.93,0,0,1,2-1.37,6.9,6.9,0,0,1,2.56-.48,6.46,6.46,0,0,1,2.6.53,5.67,5.67,0,0,1,2.06,1.55,7.4,7.4,0,0,1,1.39,2.52,10.27,10.27,0,0,1,.51,3.34"/><path d="M137.82,46.5l.62,0a13,13,0,0,0,2.16-.17,5,5,0,0,0,1.9-.76,5.94,5.94,0,0,0,1.75-1.87A4.67,4.67,0,0,0,145,41.3a4.77,4.77,0,0,0-.6-2.28,4.54,4.54,0,0,0-1.71-1.77,6,6,0,0,0-.82-.39,7.9,7.9,0,0,0-2.73-.46h-.25c-.49,0-1,.05-1.46.08l-.8.05c-.45,0-.91,0-1.37,0l-1,0L133,36.46l-.39,0v.79l.19.09a2.07,2.07,0,0,1,.87.75,2.81,2.81,0,0,1,.27,1.09c0,1,.1,2.06.12,3.14s0,2.15,0,3.19c0,2.68,0,4.75,0,6.15a1.16,1.16,0,0,1-.35.79,3.8,3.8,0,0,1-1,.69l-.2.1V54l.38,0c.33,0,.72-.05,1.18-.07l1.27,0c.68,0,1.48,0,2.38.1l.38,0v-.77l-.21-.1a1.74,1.74,0,0,1-.79-.57,2.26,2.26,0,0,1-.28-1.06c-.1-1.36-.16-3.11-.17-5.23a1.83,1.83,0,0,0,.45.14,5.22,5.22,0,0,0,.69.11m-1.14-2.23c0-.83,0-1.67,0-2.5V40.48a14.08,14.08,0,0,1,.15-2.34s0,0,0-.08H137q.69-.06,1.08-.06a7,7,0,0,1,1.29.12,3.33,3.33,0,0,1,2.33,1.61,2.9,2.9,0,0,1,.4,1.44,6.77,6.77,0,0,1-.21,1.75,2.82,2.82,0,0,1-1.16,1.61,4.59,4.59,0,0,1-1.55.63,3.75,3.75,0,0,1-1.2.05l-.45-.07a6.36,6.36,0,0,0-.89-.12Z"/></g></g></svg>