<svg xmlns="http://www.w3.org/2000/svg" viewBox="0 0 24.73 20.1"><defs><style>.cls-1{fill:#c5c19d;}</style></defs><title>Asset 1</title><g id="Layer_2" data-name="Layer 2"><g id="Layer_1-2" data-name="Layer 1"><path class="cls-1" d="M10.94,4s-.78,6.21-1.08,9.16c-.41,4-1.43,4.49-2.11,4.16C6.63,16.76,8,14.39,9,10.59,10.15,6.26,10.94,4,10.94,4"/><path class="cls-1" d="M9.69,3.19S7.81,8.71,7,11.33s-2.1,4-2.67,3.25c-.72-1,.79-2.62,1.82-4.79C7.94,6,9.69,3.19,9.69,3.19"/><path class="cls-1" d="M8.55,1.94a78,78,0,0,1-4.16,7.8c-2,2.73-3.35,1.15-1.48-.8a62,62,0,0,0,5.64-7"/><path class="cls-1" d="M7.41,0A22.2,22.2,0,0,1,2.18,6.72c-2.24,1.75-3.31.46-.46-1.48C6,2.33,7.41,0,7.41,0"/><path class="cls-1" d="M12.37,20.1h0s-1.09-.06-.92-1.94.89-13.8.91-14.18V4h0V4c0,.38.74,12.33.9,14.18s-.9,1.94-.9,1.94"/><path class="cls-1" d="M13.79,4s.78,6.21,1.08,9.16c.4,4,1.43,4.49,2.11,4.16,1.12-.55-.26-2.92-1.26-6.72C14.58,6.26,13.79,4,13.79,4"/><path class="cls-1" d="M15,3.19s1.88,5.52,2.68,8.14,2.1,4,2.67,3.25c.72-1-.79-2.62-1.82-4.79C16.79,6,15,3.19,15,3.19"/><path class="cls-1" d="M16.18,1.94a78,78,0,0,0,4.16,7.8c2,2.73,3.35,1.14,1.48-.8a63.28,63.28,0,0,1-5.64-7"/><path class="cls-1" d="M17.32,0a22.13,22.13,0,0,0,5.24,6.72c2.23,1.75,3.3.45.45-1.48C18.74,2.33,17.32,0,17.32,0"/></g></g></svg>