<svg xmlns="http://www.w3.org/2000/svg" viewBox="0 0 39.02 31.72"><defs><style>.cls-1{fill:#c89137;}</style></defs><title>ornamento</title><g id="Capa_2" data-name="Capa 2"><g id="Capa_1-2" data-name="Capa 1"><path class="cls-1" d="M21.76,25.42S23,15.62,23.46,11c.64-6.37,2.26-7.08,3.33-6.56,1.77.88-.4,4.61-2,10.6-1.8,6.83-3,10.42-3,10.42"/><path class="cls-1" d="M23.73,26.68S26.7,18,28,13.83s3.32-6.37,4.22-5.12c1.13,1.58-1.26,4.14-2.88,7.55-2.81,5.93-5.57,10.42-5.57,10.42"/><path class="cls-1" d="M25.53,28.66S30,19.14,32.09,16.35c3.19-4.31,5.29-1.81,2.33,1.26a98.09,98.09,0,0,0-8.89,11.05"/><path class="cls-1" d="M27.32,31.72s3.24-6.65,8.27-10.61c3.52-2.76,5.21-.72.72,2.34-6.74,4.58-9,8.27-9,8.27"/><path class="cls-1" d="M19.51,0h0S21.22.09,21,3.05s-1.4,21.79-1.44,22.39v0c0-.6-1.17-19.47-1.43-22.39s1.42-3,1.43-3"/><path class="cls-1" d="M17.27,25.43S16,15.62,15.56,11c-.64-6.37-2.26-7.09-3.33-6.56-1.76.88.4,4.61,2,10.6,1.8,6.83,3.06,10.43,3.06,10.43"/><path class="cls-1" d="M15.29,26.68s-3-8.71-4.22-12.85S7.74,7.46,6.85,8.71C5.72,10.3,8.1,12.85,9.72,16.26c2.81,5.93,5.57,10.42,5.57,10.42"/><path class="cls-1" d="M13.49,28.66S9,19.14,6.93,16.35c-3.19-4.3-5.29-1.81-2.33,1.26a98.09,98.09,0,0,1,8.89,11.05"/><path class="cls-1" d="M11.7,31.71s-3.24-6.64-8.27-10.6c-3.52-2.76-5.21-.72-.72,2.34,6.74,4.58,9,8.26,9,8.26"/></g></g></svg>