<svg xmlns="http://www.w3.org/2000/svg" viewBox="0 0 30.59 20.62"><defs><style>.cls-1{fill:#fff;}</style></defs><title>ornamento boton</title><g id="Capa_2" data-name="Capa 2"><g id="Capa_1-2" data-name="Capa 1"><path class="cls-1" d="M15.36,19.45a12.44,12.44,0,0,1,4.56-4.94C28.8,8.58,32,18.86,24.84,18.59c1.45-.62,0-3.81-2-2.87s-.66,6.51,4.2,4.44c7.36-3.07,2.22-12.4-6.46-8.36-.81-3,12.94-3.91,4.6-11.8,1.56,9.66-8.86,8.52-9.91,17.2C14.24,8.52,3.83,9.66,5.39,0-3,7.89,10.8,8.85,10,11.8c-8.68-4-13.81,5.29-6.45,8.36,4.86,2.07,6.15-3.49,4.2-4.44S4.3,18,5.75,18.59c-7.14.27-4-10,4.92-4.08a12.6,12.6,0,0,1,4.56,4.94"/></g></g></svg>